<svg id="visual" viewBox="0 0 950 300" width="950" height="300" xmlns="http://www.w3.org/2000/svg" xmlns:xlink="http://www.w3.org/1999/xlink" version="1.1"><rect x="0" y="0" width="950" height="300" fill="#F1F1FE"></rect><path d="M0 94L11.3 89.5C22.7 85 45.3 76 68 73.8C90.7 71.7 113.3 76.3 136 83C158.7 89.7 181.3 98.3 203.8 101.7C226.3 105 248.7 103 271.2 103.8C293.7 104.7 316.3 108.3 339 112.7C361.7 117 384.3 122 407 119.3C429.7 116.7 452.3 106.3 475 97C497.7 87.7 520.3 79.3 543 78C565.7 76.7 588.3 82.3 611 83.5C633.7 84.7 656.3 81.3 678.8 83C701.3 84.7 723.7 91.3 746.2 91.5C768.7 91.7 791.3 85.3 814 83C836.7 80.7 859.3 82.3 882 90.3C904.7 98.3 927.3 112.7 938.7 119.8L950 127L950 0L938.7 0C927.3 0 904.7 0 882 0C859.3 0 836.7 0 814 0C791.3 0 768.7 0 746.2 0C723.7 0 701.3 0 678.8 0C656.3 0 633.7 0 611 0C588.3 0 565.7 0 543 0C520.3 0 497.7 0 475 0C452.3 0 429.7 0 407 0C384.3 0 361.7 0 339 0C316.3 0 293.7 0 271.2 0C248.7 0 226.3 0 203.8 0C181.3 0 158.7 0 136 0C113.3 0 90.7 0 68 0C45.3 0 22.7 0 11.3 0L0 0Z" fill="#98a4f3"></path><path d="M0 56L11.3 60.2C22.7 64.3 45.3 72.7 68 72.2C90.7 71.7 113.3 62.3 136 67C158.7 71.7 181.3 90.3 203.8 94.8C226.3 99.3 248.7 89.7 271.2 88.2C293.7 86.7 316.3 93.3 339 96C361.7 98.7 384.3 97.3 407 92.2C429.7 87 452.3 78 475 70C497.7 62 520.3 55 543 55.5C565.7 56 588.3 64 611 65.3C633.7 66.7 656.3 61.3 678.8 66.8C701.3 72.3 723.7 88.7 746.2 90.5C768.7 92.3 791.3 79.7 814 73.3C836.7 67 859.3 67 882 74.3C904.7 81.7 927.3 96.3 938.7 103.7L950 111L950 0L938.7 0C927.3 0 904.7 0 882 0C859.3 0 836.7 0 814 0C791.3 0 768.7 0 746.2 0C723.7 0 701.3 0 678.8 0C656.3 0 633.7 0 611 0C588.3 0 565.7 0 543 0C520.3 0 497.7 0 475 0C452.3 0 429.7 0 407 0C384.3 0 361.7 0 339 0C316.3 0 293.7 0 271.2 0C248.7 0 226.3 0 203.8 0C181.3 0 158.7 0 136 0C113.3 0 90.7 0 68 0C45.3 0 22.7 0 11.3 0L0 0Z" fill="#a2acf4"></path><path d="M0 65L11.3 64.5C22.7 64 45.3 63 68 63.5C90.7 64 113.3 66 136 64C158.7 62 181.3 56 203.8 51C226.3 46 248.7 42 271.2 47.5C293.7 53 316.3 68 339 68.8C361.7 69.7 384.3 56.3 407 56.8C429.7 57.3 452.3 71.7 475 70.8C497.7 70 520.3 54 543 52.7C565.7 51.3 588.3 64.7 611 69.7C633.7 74.7 656.3 71.3 678.8 66C701.3 60.7 723.7 53.3 746.2 54.7C768.7 56 791.3 66 814 72.5C836.7 79 859.3 82 882 77C904.7 72 927.3 59 938.7 52.5L950 46L950 0L938.7 0C927.3 0 904.7 0 882 0C859.3 0 836.7 0 814 0C791.3 0 768.7 0 746.2 0C723.7 0 701.3 0 678.8 0C656.3 0 633.7 0 611 0C588.3 0 565.7 0 543 0C520.3 0 497.7 0 475 0C452.3 0 429.7 0 407 0C384.3 0 361.7 0 339 0C316.3 0 293.7 0 271.2 0C248.7 0 226.3 0 203.8 0C181.3 0 158.7 0 136 0C113.3 0 90.7 0 68 0C45.3 0 22.7 0 11.3 0L0 0Z" fill="#abb3f5"></path><path d="M0 29L11.3 31.8C22.7 34.7 45.3 40.3 68 41.3C90.7 42.3 113.3 38.7 136 37.8C158.7 37 181.3 39 203.8 38.2C226.3 37.3 248.7 33.7 271.2 33.8C293.7 34 316.3 38 339 41C361.7 44 384.3 46 407 46.5C429.7 47 452.3 46 475 46.7C497.7 47.3 520.3 49.7 543 47.5C565.7 45.3 588.3 38.7 611 36.3C633.7 34 656.3 36 678.8 41.2C701.3 46.3 723.7 54.7 746.2 52.8C768.7 51 791.3 39 814 36.7C836.7 34.3 859.3 41.7 882 49.3C904.7 57 927.3 65 938.7 69L950 73L950 0L938.7 0C927.3 0 904.7 0 882 0C859.3 0 836.7 0 814 0C791.3 0 768.7 0 746.2 0C723.7 0 701.3 0 678.8 0C656.3 0 633.7 0 611 0C588.3 0 565.7 0 543 0C520.3 0 497.7 0 475 0C452.3 0 429.7 0 407 0C384.3 0 361.7 0 339 0C316.3 0 293.7 0 271.2 0C248.7 0 226.3 0 203.8 0C181.3 0 158.7 0 136 0C113.3 0 90.7 0 68 0C45.3 0 22.7 0 11.3 0L0 0Z" fill="#b5bbf7"></path><path d="M0 30L11.3 33.8C22.7 37.7 45.3 45.3 68 43.7C90.7 42 113.3 31 136 31C158.7 31 181.3 42 203.8 47.7C226.3 53.3 248.7 53.7 271.2 49.3C293.7 45 316.3 36 339 34.3C361.7 32.7 384.3 38.3 407 37.2C429.7 36 452.3 28 475 26.2C497.7 24.3 520.3 28.7 543 29.8C565.7 31 588.3 29 611 28.3C633.7 27.7 656.3 28.3 678.8 26.8C701.3 25.3 723.7 21.7 746.2 23.8C768.7 26 791.3 34 814 34.3C836.7 34.7 859.3 27.3 882 24.3C904.7 21.3 927.3 22.7 938.7 23.3L950 24L950 0L938.7 0C927.3 0 904.7 0 882 0C859.3 0 836.7 0 814 0C791.3 0 768.7 0 746.2 0C723.7 0 701.3 0 678.8 0C656.3 0 633.7 0 611 0C588.3 0 565.7 0 543 0C520.3 0 497.7 0 475 0C452.3 0 429.7 0 407 0C384.3 0 361.7 0 339 0C316.3 0 293.7 0 271.2 0C248.7 0 226.3 0 203.8 0C181.3 0 158.7 0 136 0C113.3 0 90.7 0 68 0C45.3 0 22.7 0 11.3 0L0 0Z" fill="#bec2f8"></path><path d="M0 33L11.3 28.8C22.7 24.7 45.3 16.3 68 16C90.7 15.7 113.3 23.3 136 27.3C158.7 31.3 181.3 31.7 203.8 28C226.3 24.3 248.7 16.7 271.2 15.5C293.7 14.3 316.3 19.7 339 24C361.7 28.3 384.3 31.7 407 31.8C429.7 32 452.3 29 475 24.3C497.7 19.7 520.3 13.3 543 12.2C565.7 11 588.3 15 611 16.8C633.7 18.7 656.3 18.3 678.8 20.3C701.3 22.3 723.7 26.7 746.2 29.2C768.7 31.7 791.3 32.3 814 29.3C836.7 26.3 859.3 19.7 882 16.7C904.7 13.7 927.3 14.3 938.7 14.7L950 15L950 0L938.7 0C927.3 0 904.7 0 882 0C859.3 0 836.7 0 814 0C791.3 0 768.7 0 746.2 0C723.7 0 701.3 0 678.8 0C656.3 0 633.7 0 611 0C588.3 0 565.7 0 543 0C520.3 0 497.7 0 475 0C452.3 0 429.7 0 407 0C384.3 0 361.7 0 339 0C316.3 0 293.7 0 271.2 0C248.7 0 226.3 0 203.8 0C181.3 0 158.7 0 136 0C113.3 0 90.7 0 68 0C45.3 0 22.7 0 11.3 0L0 0Z" fill="#c7caf9"></path></svg>