<svg id="visual" viewBox="0 0 950 300" width="950" height="300" xmlns="http://www.w3.org/2000/svg" xmlns:xlink="http://www.w3.org/1999/xlink" version="1.1"><rect x="0" y="0" width="950" height="300" fill="#D7D6FF"></rect><path d="M0 246L11.3 250.5C22.7 255 45.3 264 68 269.7C90.7 275.3 113.3 277.7 136 269.5C158.7 261.3 181.3 242.7 203.8 235.7C226.3 228.7 248.7 233.3 271.2 236.2C293.7 239 316.3 240 339 239.2C361.7 238.3 384.3 235.7 407 237.8C429.7 240 452.3 247 475 252.8C497.7 258.7 520.3 263.3 543 262C565.7 260.7 588.3 253.3 611 248.3C633.7 243.3 656.3 240.7 678.8 241.3C701.3 242 723.7 246 746.2 251.8C768.7 257.7 791.3 265.3 814 263.7C836.7 262 859.3 251 882 242.2C904.7 233.3 927.3 226.7 938.7 223.3L950 220L950 0L938.7 0C927.3 0 904.7 0 882 0C859.3 0 836.7 0 814 0C791.3 0 768.7 0 746.2 0C723.7 0 701.3 0 678.8 0C656.3 0 633.7 0 611 0C588.3 0 565.7 0 543 0C520.3 0 497.7 0 475 0C452.3 0 429.7 0 407 0C384.3 0 361.7 0 339 0C316.3 0 293.7 0 271.2 0C248.7 0 226.3 0 203.8 0C181.3 0 158.7 0 136 0C113.3 0 90.7 0 68 0C45.3 0 22.7 0 11.3 0L0 0Z" fill="#98a4f3"></path><path d="M0 190L11.3 190.8C22.7 191.7 45.3 193.3 68 196C90.7 198.7 113.3 202.3 136 212.3C158.7 222.3 181.3 238.7 203.8 241.3C226.3 244 248.7 233 271.2 227.7C293.7 222.3 316.3 222.7 339 220.3C361.7 218 384.3 213 407 211.7C429.7 210.3 452.3 212.7 475 220.3C497.7 228 520.3 241 543 247C565.7 253 588.3 252 611 243C633.7 234 656.3 217 678.8 215.7C701.3 214.3 723.7 228.7 746.2 232C768.7 235.3 791.3 227.7 814 220.7C836.7 213.7 859.3 207.3 882 204.2C904.7 201 927.3 201 938.7 201L950 201L950 0L938.7 0C927.3 0 904.7 0 882 0C859.3 0 836.7 0 814 0C791.3 0 768.7 0 746.2 0C723.7 0 701.3 0 678.8 0C656.3 0 633.7 0 611 0C588.3 0 565.7 0 543 0C520.3 0 497.7 0 475 0C452.3 0 429.7 0 407 0C384.3 0 361.7 0 339 0C316.3 0 293.7 0 271.2 0C248.7 0 226.3 0 203.8 0C181.3 0 158.7 0 136 0C113.3 0 90.7 0 68 0C45.3 0 22.7 0 11.3 0L0 0Z" fill="#a2abf5"></path><path d="M0 201L11.3 200C22.7 199 45.3 197 68 199C90.7 201 113.3 207 136 207.3C158.7 207.7 181.3 202.3 203.8 194.7C226.3 187 248.7 177 271.2 179.8C293.7 182.7 316.3 198.3 339 199.5C361.7 200.7 384.3 187.3 407 185.7C429.7 184 452.3 194 475 191.3C497.7 188.7 520.3 173.3 543 167.2C565.7 161 588.3 164 611 165.7C633.7 167.3 656.3 167.7 678.8 166.8C701.3 166 723.7 164 746.2 163.3C768.7 162.7 791.3 163.3 814 163.3C836.7 163.3 859.3 162.7 882 162.7C904.7 162.7 927.3 163.3 938.7 163.7L950 164L950 0L938.7 0C927.3 0 904.7 0 882 0C859.3 0 836.7 0 814 0C791.3 0 768.7 0 746.2 0C723.7 0 701.3 0 678.8 0C656.3 0 633.7 0 611 0C588.3 0 565.7 0 543 0C520.3 0 497.7 0 475 0C452.3 0 429.7 0 407 0C384.3 0 361.7 0 339 0C316.3 0 293.7 0 271.2 0C248.7 0 226.3 0 203.8 0C181.3 0 158.7 0 136 0C113.3 0 90.7 0 68 0C45.3 0 22.7 0 11.3 0L0 0Z" fill="#abb2f6"></path><path d="M0 148L11.3 150.2C22.7 152.3 45.3 156.7 68 163.5C90.7 170.3 113.3 179.7 136 180.2C158.7 180.7 181.3 172.3 203.8 170.5C226.3 168.7 248.7 173.3 271.2 177.8C293.7 182.3 316.3 186.7 339 179.5C361.7 172.3 384.3 153.7 407 151.2C429.7 148.7 452.3 162.3 475 166.5C497.7 170.7 520.3 165.3 543 159.8C565.7 154.3 588.3 148.7 611 145.2C633.7 141.7 656.3 140.3 678.8 140.7C701.3 141 723.7 143 746.2 141.3C768.7 139.7 791.3 134.3 814 134.7C836.7 135 859.3 141 882 149.2C904.7 157.3 927.3 167.7 938.7 172.8L950 178L950 0L938.7 0C927.3 0 904.7 0 882 0C859.3 0 836.7 0 814 0C791.3 0 768.7 0 746.2 0C723.7 0 701.3 0 678.8 0C656.3 0 633.7 0 611 0C588.3 0 565.7 0 543 0C520.3 0 497.7 0 475 0C452.3 0 429.7 0 407 0C384.3 0 361.7 0 339 0C316.3 0 293.7 0 271.2 0C248.7 0 226.3 0 203.8 0C181.3 0 158.7 0 136 0C113.3 0 90.7 0 68 0C45.3 0 22.7 0 11.3 0L0 0Z" fill="#b5b8f8"></path><path d="M0 101L11.3 110C22.7 119 45.3 137 68 141.3C90.7 145.7 113.3 136.3 136 127C158.7 117.7 181.3 108.3 203.8 111.3C226.3 114.3 248.7 129.7 271.2 134.7C293.7 139.7 316.3 134.3 339 127.8C361.7 121.3 384.3 113.7 407 111C429.7 108.3 452.3 110.7 475 114.2C497.7 117.7 520.3 122.3 543 122.3C565.7 122.3 588.3 117.7 611 119.8C633.7 122 656.3 131 678.8 130.5C701.3 130 723.7 120 746.2 121.8C768.7 123.7 791.3 137.3 814 142.5C836.7 147.7 859.3 144.3 882 139.3C904.7 134.3 927.3 127.7 938.7 124.3L950 121L950 0L938.7 0C927.3 0 904.7 0 882 0C859.3 0 836.7 0 814 0C791.3 0 768.7 0 746.2 0C723.7 0 701.3 0 678.8 0C656.3 0 633.7 0 611 0C588.3 0 565.7 0 543 0C520.3 0 497.7 0 475 0C452.3 0 429.7 0 407 0C384.3 0 361.7 0 339 0C316.3 0 293.7 0 271.2 0C248.7 0 226.3 0 203.8 0C181.3 0 158.7 0 136 0C113.3 0 90.7 0 68 0C45.3 0 22.7 0 11.3 0L0 0Z" fill="#bdc0fa"></path><path d="M0 81L11.3 83.2C22.7 85.3 45.3 89.7 68 96.7C90.7 103.7 113.3 113.3 136 113.5C158.7 113.7 181.3 104.3 203.8 98.5C226.3 92.7 248.7 90.3 271.2 86C293.7 81.7 316.3 75.3 339 81.3C361.7 87.3 384.3 105.7 407 112.8C429.7 120 452.3 116 475 115.2C497.7 114.3 520.3 116.7 543 118.3C565.7 120 588.3 121 611 116.5C633.7 112 656.3 102 678.8 101.2C701.3 100.3 723.7 108.7 746.2 109.3C768.7 110 791.3 103 814 95.5C836.7 88 859.3 80 882 77.2C904.7 74.3 927.3 76.7 938.7 77.8L950 79L950 0L938.7 0C927.3 0 904.7 0 882 0C859.3 0 836.7 0 814 0C791.3 0 768.7 0 746.2 0C723.7 0 701.3 0 678.8 0C656.3 0 633.7 0 611 0C588.3 0 565.7 0 543 0C520.3 0 497.7 0 475 0C452.3 0 429.7 0 407 0C384.3 0 361.7 0 339 0C316.3 0 293.7 0 271.2 0C248.7 0 226.3 0 203.8 0C181.3 0 158.7 0 136 0C113.3 0 90.7 0 68 0C45.3 0 22.7 0 11.3 0L0 0Z" fill="#c6c7fc"></path><path d="M0 91L11.3 85.7C22.7 80.3 45.3 69.7 68 65.8C90.7 62 113.3 65 136 69C158.7 73 181.3 78 203.8 81C226.3 84 248.7 85 271.2 79C293.7 73 316.3 60 339 56C361.7 52 384.3 57 407 56.3C429.7 55.7 452.3 49.3 475 51.2C497.7 53 520.3 63 543 67.3C565.7 71.7 588.3 70.3 611 67.5C633.7 64.7 656.3 60.3 678.8 63.2C701.3 66 723.7 76 746.2 81.5C768.7 87 791.3 88 814 80.7C836.7 73.3 859.3 57.7 882 57.7C904.7 57.7 927.3 73.3 938.7 81.2L950 89L950 0L938.7 0C927.3 0 904.7 0 882 0C859.3 0 836.7 0 814 0C791.3 0 768.7 0 746.2 0C723.7 0 701.3 0 678.8 0C656.3 0 633.7 0 611 0C588.3 0 565.7 0 543 0C520.3 0 497.7 0 475 0C452.3 0 429.7 0 407 0C384.3 0 361.7 0 339 0C316.3 0 293.7 0 271.2 0C248.7 0 226.3 0 203.8 0C181.3 0 158.7 0 136 0C113.3 0 90.7 0 68 0C45.3 0 22.7 0 11.3 0L0 0Z" fill="#cfcefd"></path><path d="M0 49L11.3 48.7C22.7 48.3 45.3 47.7 68 46.2C90.7 44.7 113.3 42.3 136 37.8C158.7 33.3 181.3 26.7 203.8 27C226.3 27.3 248.7 34.7 271.2 36.5C293.7 38.3 316.3 34.7 339 29.5C361.7 24.3 384.3 17.7 407 19.5C429.7 21.3 452.3 31.7 475 38.8C497.7 46 520.3 50 543 52.8C565.7 55.7 588.3 57.3 611 55.3C633.7 53.3 656.3 47.7 678.8 40.3C701.3 33 723.7 24 746.2 26C768.7 28 791.3 41 814 43.3C836.7 45.7 859.3 37.3 882 32.8C904.7 28.3 927.3 27.7 938.7 27.3L950 27L950 0L938.7 0C927.3 0 904.7 0 882 0C859.3 0 836.7 0 814 0C791.3 0 768.7 0 746.2 0C723.7 0 701.3 0 678.8 0C656.3 0 633.7 0 611 0C588.3 0 565.7 0 543 0C520.3 0 497.7 0 475 0C452.3 0 429.7 0 407 0C384.3 0 361.7 0 339 0C316.3 0 293.7 0 271.2 0C248.7 0 226.3 0 203.8 0C181.3 0 158.7 0 136 0C113.3 0 90.7 0 68 0C45.3 0 22.7 0 11.3 0L0 0Z" fill="#d7d6ff"></path></svg>