<svg id="visual" viewBox="0 0 950 300" width="950" height="300" xmlns="http://www.w3.org/2000/svg" xmlns:xlink="http://www.w3.org/1999/xlink" version="1.1"><path d="M0 61L11.3 56C22.7 51 45.3 41 68 37.5C90.7 34 113.3 37 136 41C158.7 45 181.3 50 203.8 52C226.3 54 248.7 53 271.2 53.5C293.7 54 316.3 56 339 51.5C361.7 47 384.3 36 407 31C429.7 26 452.3 27 475 33.5C497.7 40 520.3 52 543 52C565.7 52 588.3 40 611 34C633.7 28 656.3 28 678.8 31C701.3 34 723.7 40 746.2 43C768.7 46 791.3 46 814 47C836.7 48 859.3 50 882 51C904.7 52 927.3 52 938.7 52L950 52L950 0L938.7 0C927.3 0 904.7 0 882 0C859.3 0 836.7 0 814 0C791.3 0 768.7 0 746.2 0C723.7 0 701.3 0 678.8 0C656.3 0 633.7 0 611 0C588.3 0 565.7 0 543 0C520.3 0 497.7 0 475 0C452.3 0 429.7 0 407 0C384.3 0 361.7 0 339 0C316.3 0 293.7 0 271.2 0C248.7 0 226.3 0 203.8 0C181.3 0 158.7 0 136 0C113.3 0 90.7 0 68 0C45.3 0 22.7 0 11.3 0L0 0Z" fill="#d7d6ff"></path><path d="M0 91L11.3 85.5C22.7 80 45.3 69 68 65.5C90.7 62 113.3 66 136 72C158.7 78 181.3 86 203.8 87C226.3 88 248.7 82 271.2 81.5C293.7 81 316.3 86 339 85C361.7 84 384.3 77 407 71C429.7 65 452.3 60 475 64C497.7 68 520.3 81 543 85C565.7 89 588.3 84 611 79C633.7 74 656.3 69 678.8 69C701.3 69 723.7 74 746.2 75.5C768.7 77 791.3 75 814 78C836.7 81 859.3 89 882 91.5C904.7 94 927.3 91 938.7 89.5L950 88L950 50L938.7 50C927.3 50 904.7 50 882 49C859.3 48 836.7 46 814 45C791.3 44 768.7 44 746.2 41C723.7 38 701.3 32 678.8 29C656.3 26 633.7 26 611 32C588.3 38 565.7 50 543 50C520.3 50 497.7 38 475 31.5C452.3 25 429.7 24 407 29C384.3 34 361.7 45 339 49.5C316.3 54 293.7 52 271.2 51.5C248.7 51 226.3 52 203.8 50C181.3 48 158.7 43 136 39C113.3 35 90.7 32 68 35.5C45.3 39 22.7 49 11.3 54L0 59Z" fill="#bec0fa"></path><path d="M0 127L11.3 118.5C22.7 110 45.3 93 68 88C90.7 83 113.3 90 136 97C158.7 104 181.3 111 203.8 111C226.3 111 248.7 104 271.2 103.5C293.7 103 316.3 109 339 110C361.7 111 384.3 107 407 102C429.7 97 452.3 91 475 94.5C497.7 98 520.3 111 543 113.5C565.7 116 588.3 108 611 103.5C633.7 99 656.3 98 678.8 101C701.3 104 723.7 111 746.2 114C768.7 117 791.3 116 814 117.5C836.7 119 859.3 123 882 123.5C904.7 124 927.3 121 938.7 119.5L950 118L950 86L938.7 87.5C927.3 89 904.7 92 882 89.5C859.3 87 836.7 79 814 76C791.3 73 768.7 75 746.2 73.5C723.7 72 701.3 67 678.8 67C656.3 67 633.7 72 611 77C588.3 82 565.7 87 543 83C520.3 79 497.7 66 475 62C452.3 58 429.7 63 407 69C384.3 75 361.7 82 339 83C316.3 84 293.7 79 271.2 79.5C248.7 80 226.3 86 203.8 85C181.3 84 158.7 76 136 70C113.3 64 90.7 60 68 63.5C45.3 67 22.7 78 11.3 83.5L0 89Z" fill="#a3acf5"></path><path d="M0 151L11.3 142C22.7 133 45.3 115 68 110C90.7 105 113.3 113 136 121.5C158.7 130 181.3 139 203.8 138.5C226.3 138 248.7 128 271.2 127.5C293.7 127 316.3 136 339 138C361.7 140 384.3 135 407 129C429.7 123 452.3 116 475 118.5C497.7 121 520.3 133 543 136.5C565.7 140 588.3 135 611 130.5C633.7 126 656.3 122 678.8 124.5C701.3 127 723.7 136 746.2 138.5C768.7 141 791.3 137 814 139C836.7 141 859.3 149 882 149C904.7 149 927.3 141 938.7 137L950 133L950 116L938.7 117.5C927.3 119 904.7 122 882 121.5C859.3 121 836.7 117 814 115.5C791.3 114 768.7 115 746.2 112C723.7 109 701.3 102 678.8 99C656.3 96 633.7 97 611 101.5C588.3 106 565.7 114 543 111.5C520.3 109 497.7 96 475 92.5C452.3 89 429.7 95 407 100C384.3 105 361.7 109 339 108C316.3 107 293.7 101 271.2 101.5C248.7 102 226.3 109 203.8 109C181.3 109 158.7 102 136 95C113.3 88 90.7 81 68 86C45.3 91 22.7 108 11.3 116.5L0 125Z" fill="#98a4f3"></path><path d="M0 193L11.3 189.5C22.7 186 45.3 179 68 183C90.7 187 113.3 202 136 209.5C158.7 217 181.3 217 203.8 211C226.3 205 248.7 193 271.2 190C293.7 187 316.3 193 339 196.5C361.7 200 384.3 201 407 198C429.7 195 452.3 188 475 190.5C497.7 193 520.3 205 543 207C565.7 209 588.3 201 611 199C633.7 197 656.3 201 678.8 205.5C701.3 210 723.7 215 746.2 211C768.7 207 791.3 194 814 194C836.7 194 859.3 207 882 208C904.7 209 927.3 198 938.7 192.5L950 187L950 131L938.7 135C927.3 139 904.7 147 882 147C859.3 147 836.7 139 814 137C791.3 135 768.7 139 746.2 136.5C723.7 134 701.3 125 678.8 122.5C656.3 120 633.7 124 611 128.5C588.3 133 565.7 138 543 134.5C520.3 131 497.7 119 475 116.5C452.3 114 429.7 121 407 127C384.3 133 361.7 138 339 136C316.3 134 293.7 125 271.2 125.5C248.7 126 226.3 136 203.8 136.5C181.3 137 158.7 128 136 119.5C113.3 111 90.7 103 68 108C45.3 113 22.7 131 11.3 140L0 149Z" fill="#a3acf5"></path><path d="M0 274L11.3 273C22.7 272 45.3 270 68 270C90.7 270 113.3 272 136 274C158.7 276 181.3 278 203.8 277C226.3 276 248.7 272 271.2 271.5C293.7 271 316.3 274 339 274.5C361.7 275 384.3 273 407 273C429.7 273 452.3 275 475 275C497.7 275 520.3 273 543 274.5C565.7 276 588.3 281 611 281C633.7 281 656.3 276 678.8 274.5C701.3 273 723.7 275 746.2 277.5C768.7 280 791.3 283 814 284C836.7 285 859.3 284 882 283.5C904.7 283 927.3 283 938.7 283L950 283L950 185L938.7 190.5C927.3 196 904.7 207 882 206C859.3 205 836.7 192 814 192C791.3 192 768.7 205 746.2 209C723.7 213 701.3 208 678.8 203.5C656.3 199 633.7 195 611 197C588.3 199 565.7 207 543 205C520.3 203 497.7 191 475 188.5C452.3 186 429.7 193 407 196C384.3 199 361.7 198 339 194.5C316.3 191 293.7 185 271.2 188C248.7 191 226.3 203 203.8 209C181.3 215 158.7 215 136 207.5C113.3 200 90.7 185 68 181C45.3 177 22.7 184 11.3 187.5L0 191Z" fill="#bec0fa"></path><path d="M0 301L11.3 301C22.7 301 45.3 301 68 301C90.7 301 113.3 301 136 301C158.7 301 181.3 301 203.8 301C226.3 301 248.7 301 271.2 301C293.7 301 316.3 301 339 301C361.7 301 384.3 301 407 301C429.7 301 452.3 301 475 301C497.7 301 520.3 301 543 301C565.7 301 588.3 301 611 301C633.7 301 656.3 301 678.8 301C701.3 301 723.7 301 746.2 301C768.7 301 791.3 301 814 301C836.7 301 859.3 301 882 301C904.7 301 927.3 301 938.7 301L950 301L950 281L938.7 281C927.3 281 904.7 281 882 281.5C859.3 282 836.7 283 814 282C791.3 281 768.7 278 746.2 275.5C723.7 273 701.3 271 678.8 272.5C656.3 274 633.7 279 611 279C588.3 279 565.7 274 543 272.5C520.3 271 497.7 273 475 273C452.3 273 429.7 271 407 271C384.3 271 361.7 273 339 272.5C316.3 272 293.7 269 271.2 269.5C248.7 270 226.3 274 203.8 275C181.3 276 158.7 274 136 272C113.3 270 90.7 268 68 268C45.3 268 22.7 270 11.3 271L0 272Z" fill="#d7d6ff"></path></svg>